HIERARCHY
ROOT Hips
{
	OFFSET -3.958830 18.904000 13.208200
	CHANNELS 6 Xposition Yposition Zposition Zrotation Yrotation Xrotation 
	JOINT LHipJoint
	{
		OFFSET 0.000000 0.000000 0.000000
		CHANNELS 3 Zrotation Yrotation Xrotation
		JOINT LeftUpLeg
		{
			OFFSET 1.800000 -1.400000 0.085000
			CHANNELS 3 Zrotation Yrotation Xrotation
			JOINT LeftLeg
			{
				OFFSET 2.215000 -6.000000 0.000000
				CHANNELS 3 Zrotation Yrotation Xrotation
				JOINT LeftFoot
				{
					OFFSET 2.500000 -6.900000 0.000000
					CHANNELS 3 Zrotation Yrotation Xrotation
					JOINT LeftToeBase
					{
						OFFSET 0.200000 -0.500000 1.950000
						CHANNELS 3 Zrotation Yrotation Xrotation
						End Site
						{
							OFFSET 0.000000 0.000000 0.000000
						}
					}
				}
			}
		}
	}
	JOINT RHipJoint
	{
		OFFSET 0.000000 0.000000 0.000000
		CHANNELS 3 Zrotation Yrotation Xrotation
		JOINT RightUpLeg
		{
			OFFSET -1.800000 -1.400000 0.085000
			CHANNELS 3 Zrotation Yrotation Xrotation
			JOINT RightLeg
			{
				OFFSET -2.215000 -6.000000 0.000000
				CHANNELS 3 Zrotation Yrotation Xrotation
				JOINT RightFoot
				{
					OFFSET -2.500000 -6.900000 0.000000
					CHANNELS 3 Zrotation Yrotation Xrotation
					JOINT RightToeBase
					{
						OFFSET -0.200000 -0.500000 1.950000
						CHANNELS 3 Zrotation Yrotation Xrotation
						End Site
						{
							OFFSET 0.000000 0.000000 0.000000
						}
					}
				}
			}
		}
	}
	JOINT LowerBack
	{
		OFFSET 0.000000 0.000000 0.000000
		CHANNELS 3 Zrotation Yrotation Xrotation
		JOINT Spine
		{
			OFFSET -0.087000 1.940000 -0.288900
			CHANNELS 3 Zrotation Yrotation Xrotation
			JOINT Spine1
			{
				OFFSET 0.000000 1.950000 0.060000
				CHANNELS 3 Zrotation Yrotation Xrotation
				JOINT Neck
				{
					OFFSET 0.000000 0.000000 0.000000
					CHANNELS 3 Zrotation Yrotation Xrotation
					JOINT Neck1
					{
						OFFSET 0.000000 1.600000 0.340000
						CHANNELS 3 Zrotation Yrotation Xrotation
						JOINT Head
						{
							OFFSET 0.000000 1.667000 -0.240000
							CHANNELS 3 Zrotation Yrotation Xrotation
							End Site
							{
								OFFSET 0.000000 0.000000 0.000000
							}
						}
					}
				}
				JOINT LeftShoulder
				{
					OFFSET 0.000000 0.000000 0.000000
					CHANNELS 3 Zrotation Yrotation Xrotation
					JOINT LeftArm
					{
						OFFSET 2.700000 1.550000 -0.730000
						CHANNELS 3 Zrotation Yrotation Xrotation
						JOINT LeftForeArm
						{
							OFFSET 5.450000 0.000000 0.000000
							CHANNELS 3 Zrotation Yrotation Xrotation
							JOINT LeftHand
							{
								OFFSET 3.450000 0.000000 0.000000
								CHANNELS 3 Zrotation Yrotation Xrotation
								JOINT LeftHandIndex1
								{
									OFFSET 0.750000 0.000000 0.000000
									CHANNELS 3 Zrotation Yrotation Xrotation
									End Site
									{
										OFFSET 0.000000 0.000000 0.000000
									}
								}
							}
						}
					}
				}
				JOINT RightShoulder
				{
					OFFSET 0.000000 0.000000 0.000000
					CHANNELS 3 Zrotation Yrotation Xrotation
					JOINT RightArm
					{
						OFFSET -2.700000 1.550000 -0.730000
						CHANNELS 3 Zrotation Yrotation Xrotation
						JOINT RightForeArm
						{
							OFFSET -5.450000 0.000000 0.000000
							CHANNELS 3 Zrotation Yrotation Xrotation
							JOINT RightHand
							{
								OFFSET -3.450000 0.000000 0.000000
								CHANNELS 3 Zrotation Yrotation Xrotation
								JOINT RightHandIndex1
								{
									OFFSET -0.750000 0.000000 0.000000
									CHANNELS 3 Zrotation Yrotation Xrotation
									End Site
									{
										OFFSET 0.000000 0.000000 0.000000
									}
								}
							}
						}
					}
				}
			}
		}
	}
}
MOTION
Frames: 7
Frame Time: 0.016667
-0.587050 17.298840 -4.256130 -33.253104 30.471060 -28.219806 -15.039698 9.385840 1.886468 24.309538 2.441310 -34.811996 4.529003 9.509137 37.503313 -0.697020 7.863272 1.629264 0.114340 -0.255440 -0.108950 19.468432 -6.705209 7.314082 -29.705383 24.657524 -80.628227 49.743059 -45.635033 64.919863 -3.418511 -16.678809 -0.581801 0.186310 0.712090 0.040900 -5.949652 1.464503 -10.288079 20.044444 -11.582303 61.158583 -17.648098 0.208365 20.722931 -1.127303 -10.806068 -10.673830 -27.607150 9.222265 44.242462 12.325340 -9.582500 -11.345770 0.258337 -19.731387 3.705159 -9.077711 -17.995031 -13.825381 87.666257 -33.897734 -40.779011 -3.860537 2.408357 0.632940 0.162290 -0.338620 0.091940 2.266398 25.491423 6.604238 18.771060 23.981706 -15.284068 -94.696055 43.035587 -53.867376 1.630776 -0.851300 -0.606330 0.684950 0.450870 -0.120070 
-0.554620 17.280550 -4.242780 -33.564355 30.185834 -29.056713 -15.044856 9.508426 1.908296 24.677482 2.641085 -34.436980 4.856258 9.523070 38.331156 -0.614196 7.910055 1.572549 0.211390 -0.139500 -0.043450 19.426683 -6.800121 7.155704 -27.769740 25.451490 -78.129344 47.122060 -46.405210 67.908740 -3.580061 -17.123333 -0.698727 0.210440 0.593020 0.078180 -5.887989 1.370640 -10.233546 19.961611 -12.090459 61.441766 -17.842705 -0.357006 20.428079 -0.551931 -11.514116 -10.905123 -29.441309 9.971226 43.830021 11.285460 -9.254250 -12.811790 -1.457523 -19.558604 4.044471 -10.676570 -16.237565 -14.137655 88.891892 -36.532533 -43.793913 -3.771965 2.444886 0.634270 0.097480 -0.258900 0.104760 3.002365 25.849561 6.501302 18.477888 24.179299 -15.244189 -94.143344 46.036809 -55.850114 1.634249 -0.755947 -0.509680 0.599300 0.380040 -0.116660 
-0.503030 17.281520 -4.194350 -33.375812 28.374735 -30.936919 -15.092049 10.008269 1.908631 26.184758 3.881803 -32.196429 4.963346 9.963130 38.992472 -0.228846 7.746985 1.573776 0.503020 0.316950 0.136610 19.274911 -6.902955 6.887445 -23.883896 27.879024 -72.377572 41.648073 -48.465589 75.458227 -4.081910 -18.250773 -0.869262 0.277440 0.254120 0.102720 -5.511553 0.698163 -10.100288 17.982543 -10.688586 62.908377 -16.215593 0.107601 19.189862 0.753267 -11.940233 -12.436528 -33.088935 12.666707 45.958187 8.197450 -7.162160 -15.251720 -6.203931 -20.361079 4.916469 -14.821043 -12.673729 -15.217259 89.102930 -46.498155 -52.062470 -3.459927 2.373559 0.557480 -0.085140 0.002630 0.200960 5.116769 27.813491 7.361495 19.249732 21.602208 -16.692855 -92.513561 54.782354 -61.022400 1.684721 -0.341064 -0.179740 0.402020 0.072380 -0.040070 
-0.407860 17.290460 -4.128200 -34.145247 27.769677 -32.458097 -15.111461 10.307727 2.018428 27.398369 4.663931 -31.096681 4.904343 10.333025 39.547238 -0.173036 7.841427 1.552469 0.620990 0.452680 0.296830 19.158590 -7.107225 6.485155 -18.286274 29.053902 -64.126023 32.957792 -50.202282 85.989600 -4.515604 -19.557140 -1.052503 0.326650 0.104540 -0.003780 -5.321974 0.388029 -10.013811 18.168761 -10.391333 61.862470 -15.729865 0.410749 16.552729 1.903052 -11.861598 -12.847616 -36.179866 15.727154 50.027541 6.358990 -6.288910 -17.953010 -13.017972 -20.641205 5.019450 -20.650111 -10.032776 -16.122691 78.472807 -56.402878 -49.989361 -3.183441 1.890086 0.673140 -0.222560 0.126460 0.231740 9.607436 28.486537 7.191074 23.791958 18.650217 -20.490038 -77.305558 69.599792 -54.493887 1.202993 0.935301 -0.191640 0.483790 -0.061970 -0.083670 
-0.314400 17.308060 -4.025230 -34.474560 30.129387 -33.886228 -15.178137 10.812619 1.990135 25.657859 3.843011 -31.044662 6.650762 9.247559 41.370567 -0.121657 7.636721 1.597030 0.828150 0.715990 0.462440 18.981629 -7.425009 6.044149 -11.996477 27.012354 -53.322401 21.943527 -47.551836 95.741998 -4.720329 -19.925146 -1.112187 0.420070 -0.073250 -0.029030 -5.131559 -0.106001 -9.777670 17.018138 -9.918439 59.118287 -14.441732 0.375077 14.912707 2.329854 -10.701460 -13.728156 -37.013932 19.328773 56.975264 6.697000 -5.105860 -20.167820 -16.738776 -20.128061 5.201104 -29.550048 -7.593412 -17.374965 50.880481 -58.079977 -32.120185 -2.877647 2.263645 0.767220 -0.369560 0.314370 0.295760 12.559543 27.427924 8.123714 32.020805 14.072416 -23.094480 -30.810141 73.792634 -26.487801 1.579835 -0.815180 -0.106180 0.489270 -0.234710 -0.079040 
-0.193920 17.346490 -3.878110 -32.537652 29.444324 -33.364933 -15.175339 11.314733 1.863106 25.048980 4.126079 -28.548607 6.591998 9.204195 41.442026 -0.157844 7.392659 1.614272 1.057560 1.010230 0.686540 18.884380 -7.920892 5.663683 -6.839201 25.525731 -42.570129 13.551380 -41.805262 101.383605 -4.661233 -19.090741 -0.956952 0.566700 -0.305940 -0.131190 -5.024655 -0.197261 -9.489022 15.399214 -7.342076 54.298170 -14.137451 2.173338 12.362111 2.833476 -8.816586 -15.208512 -37.054435 23.795653 67.910169 6.763810 -3.041940 -22.363400 -21.604768 -19.406181 5.219818 -35.236647 -4.076769 -15.549065 30.642502 -43.927920 -15.395643 -2.713349 2.563112 0.928920 -0.553690 0.524160 0.330470 16.339443 26.382520 9.400653 41.519858 9.325311 -21.913366 -4.925207 60.213660 -8.126332 1.830434 -1.246258 -0.086610 0.548090 -0.420190 -0.129740 
-0.047010 17.335660 -3.646010 -29.977238 30.356889 -32.386246 -15.282095 12.066006 1.977458 23.830180 3.761920 -26.669518 5.816418 9.478853 42.540251 -0.166185 7.485641 1.515631 1.132580 1.066490 0.828410 18.629285 -8.442393 5.063573 -3.687133 21.441821 -31.108687 6.538666 -34.633078 103.419915 -4.399358 -17.489137 -0.701771 0.548500 -0.435320 -0.093290 -4.531006 -0.991730 -9.130477 10.867424 -3.363373 49.556604 -10.210559 3.343615 4.788916 1.765331 -7.205730 -14.304130 -36.526213 27.180899 79.727642 8.440270 -1.416680 -25.704320 -26.724773 -13.353343 3.642169 -41.098125 0.698261 -11.744048 20.237114 -27.468667 -7.021323 -2.770141 2.490380 1.123820 -0.685440 0.716120 0.278140 23.259046 20.304589 7.926837 46.121167 2.166448 -19.142292 -0.534439 42.541329 -3.498771 2.034796 -1.009443 -0.051780 0.584830 -0.424180 -0.182750 
